<?xml version="1.0" encoding="iso-8859-1"?>
<!-- Uploaded to: SVG Repo, www.svgrepo.com, Generator: SVG Repo Mixer Tools -->
<svg height="800px" width="800px" version="1.1" id="Layer_1" xmlns="http://www.w3.org/2000/svg" xmlns:xlink="http://www.w3.org/1999/xlink" 
	 viewBox="0 0 512.002 512.002" xml:space="preserve">
<g>
	<path style="fill:#E45D4C;" d="M76.722,92.903l16.34,95.426h95.266V93.062l-95.425-16.34
		C83.372,75.089,75.091,83.372,76.722,92.903z"/>
	<path style="fill:#E45D4C;" d="M13.905,267.442l79.03,55.922L160.299,256l-67.364-67.364l-79.03,55.922
		C6.011,250.143,6.011,261.857,13.905,267.442z"/>
	<path style="fill:#E45D4C;" d="M92.904,435.279l95.425-16.34v-95.266H93.063l-16.34,95.425
		C75.091,428.629,83.372,436.911,92.904,435.279z"/>
	<path style="fill:#E45D4C;" d="M267.443,498.096l55.922-79.03l-67.364-67.364l-67.364,67.364l55.922,79.03
		C250.144,505.99,261.858,505.99,267.443,498.096z"/>
	<path style="fill:#E45D4C;" d="M435.28,419.097l-16.34-95.425h-95.266v95.266l95.425,16.34
		C428.63,436.911,436.912,428.629,435.28,419.097z"/>
	<path style="fill:#E45D4C;" d="M498.097,244.558l-79.03-55.922L351.704,256l67.364,67.364l79.03-55.922
		C505.991,261.857,505.991,250.143,498.097,244.558z"/>
	<path style="fill:#E45D4C;" d="M419.098,76.721l-95.425,16.34v95.266h95.266l16.34-95.426
		C436.912,83.372,428.63,75.089,419.098,76.721z"/>
	<path style="fill:#E45D4C;" d="M244.559,13.904l-55.922,79.03l67.364,67.364l67.364-67.364l-55.922-79.03
		C261.858,6.01,250.144,6.01,244.559,13.904z"/>
</g>
<path style="opacity:0.15;enable-background:new    ;" d="M13.905,267.442l79.03,55.922L160.299,256l-67.364-67.364l-79.03,55.922
	C6.011,250.143,6.011,261.857,13.905,267.442z"/>
<path style="opacity:0.15;enable-background:new    ;" d="M267.443,498.096l55.922-79.03l-67.364-67.364l-67.364,67.364
	l55.922,79.03C250.144,505.99,261.858,505.99,267.443,498.096z"/>
<path style="opacity:0.15;enable-background:new    ;" d="M498.097,244.558l-79.03-55.922L351.704,256l67.364,67.364l79.03-55.922
	C505.991,261.857,505.991,250.143,498.097,244.558z"/>
<path style="opacity:0.15;enable-background:new    ;" d="M244.559,13.904l-55.922,79.03l67.364,67.364l67.364-67.364l-55.922-79.03
	C261.858,6.01,250.144,6.01,244.559,13.904z"/>
<path style="opacity:0.1;enable-background:new    ;" d="M323.673,323.672v95.266l11.958,2.048
	c34.84-22.456,61.284-56.808,73.599-97.314H323.673z"/>
<path style="opacity:0.1;enable-background:new    ;" d="M256.001,351.702l-67.364,67.364l19.201,27.135
	c10.393,1.901,21.102,2.902,32.044,2.902c26.23,0,51.124-5.713,73.515-15.952l9.966-14.085L256.001,351.702z"/>
<path style="opacity:0.1;enable-background:new    ;" d="M91.015,176.37l2.048,11.959h95.266V102.77
	C147.823,115.086,113.47,141.529,91.015,176.37z"/>
<path style="opacity:0.1;enable-background:new    ;" d="M92.935,188.636l-14.085,9.966c-10.239,22.392-15.952,47.285-15.952,73.515
	c0,10.943,1.001,21.651,2.902,32.044l27.135,19.201l67.364-67.364L92.935,188.636z"/>
<path style="opacity:0.1;enable-background:new    ;" d="M93.063,323.672l-6.36,37.143c15.497,26.707,37.777,48.986,64.483,64.483
	l37.143-6.36v-95.266H93.063z"/>
<circle style="fill:#F5DF5D;" cx="256.001" cy="256" r="176.986"/>
<path style="opacity:0.1;enable-background:new    ;" d="M267.91,421.076c-97.746,0-176.985-79.239-176.985-176.985
	c0-45.843,17.43-87.615,46.025-119.051C101.359,157.414,79.016,204.097,79.016,256c0,97.746,79.239,176.985,176.985,176.985
	c51.903,0,98.586-22.342,130.96-57.934C355.525,403.645,313.753,421.076,267.91,421.076z"/>
<path d="M502.71,238.041l-75.084-53.13l15.524-90.661c1.203-7.025-1.088-14.228-6.128-19.27c-5.04-5.04-12.248-7.33-19.271-6.128
	l-90.661,15.524l-53.13-75.083C269.843,3.474,263.129,0,256.001,0c-7.128,0-13.842,3.474-17.958,9.293l-53.13,75.084L94.252,68.853
	c-7.022-1.201-14.23,1.087-19.271,6.128c-5.039,5.04-7.331,12.244-6.128,19.27l15.524,90.661L9.293,238.041
	C3.475,242.159,0.001,248.872,0.001,256c0,7.128,3.474,13.841,9.292,17.959l75.084,53.13L68.853,417.75
	c-1.203,7.025,1.088,14.228,6.128,19.27c4.156,4.156,9.783,6.443,15.569,6.443c1.23,0,2.47-0.103,3.702-0.314l90.661-15.524
	l53.13,75.084c4.116,5.818,10.831,9.293,17.958,9.293c7.128,0,13.842-3.474,17.958-9.293l53.13-75.084l90.661,15.524
	c1.233,0.211,2.47,0.314,3.702,0.314c5.785,0,11.413-2.286,15.569-6.443c5.039-5.04,7.331-12.244,6.128-19.27l-15.524-90.661
	l75.085-53.13c5.817-4.118,9.29-10.831,9.29-17.959C512.001,248.872,508.527,242.159,502.71,238.041z M76.881,302.224
	l-58.364-41.298c-1.62-1.145-2.549-2.941-2.549-4.925s0.929-3.78,2.548-4.925l58.365-41.299c-3.816,14.78-5.848,30.269-5.848,46.224
	S73.065,287.445,76.881,302.224z M251.076,18.515c1.146-1.619,2.941-2.548,4.925-2.548c1.984,0,3.779,0.929,4.925,2.548l41.3,58.365
	c-14.78-3.816-30.269-5.848-46.225-5.848s-31.445,2.031-46.225,5.848L251.076,18.515z M86.273,86.27
	c1.402-1.403,3.324-2.018,5.285-1.681l70.584,12.086c-26.951,15.938-49.526,38.513-65.464,65.464L84.592,91.555
	C84.256,89.6,84.869,87.674,86.273,86.27z M91.558,427.409c-1.955,0.336-3.883-0.277-5.285-1.681
	c-1.403-1.403-2.016-3.329-1.681-5.285l12.086-70.585c15.938,26.951,38.513,49.526,65.464,65.464L91.558,427.409z M260.926,493.485
	c-1.146,1.619-2.941,2.548-4.925,2.548c-1.984,0-3.779-0.929-4.925-2.548l-41.3-58.365c14.78,3.816,30.269,5.848,46.225,5.848
	s31.445-2.031,46.225-5.848L260.926,493.485z M256.001,425.002C162.814,425.002,87,349.188,87,256S162.814,86.998,256.001,86.998
	S425.003,162.813,425.003,256S349.188,425.002,256.001,425.002z M425.73,425.73c-1.402,1.403-3.326,2.017-5.285,1.681
	l-70.584-12.086c26.951-15.938,49.526-38.513,65.464-65.464l12.087,70.585C427.746,422.4,427.134,424.326,425.73,425.73z
	 M427.41,91.555l-12.087,70.585c-15.938-26.951-38.513-49.526-65.464-65.464l70.584-12.086c1.961-0.335,3.883,0.278,5.285,1.681
	C427.134,87.674,427.746,89.6,427.41,91.555z M493.486,260.925l-58.366,41.3c3.817-14.78,5.848-30.269,5.848-46.225
	c0-15.955-2.031-31.445-5.847-46.224l58.364,41.299c1.62,1.146,2.549,2.941,2.549,4.925
	C496.034,257.984,495.105,259.78,493.486,260.925z"/>
</svg>